<?xml version="1.0" encoding="UTF-8" standalone="no"?>
<!DOCTYPE svg PUBLIC "-//W3C//DTD SVG 1.1//EN" "http://www.w3.org/Graphics/SVG/1.1/DTD/svg11.dtd">
<svg width="100%" height="100%" viewBox="0 0 251 314" version="1.1" xmlns="http://www.w3.org/2000/svg" xmlns:xlink="http://www.w3.org/1999/xlink" xml:space="preserve" xmlns:serif="http://www.serif.com/" style="fill-rule:evenodd;clip-rule:evenodd;stroke-linejoin:round;stroke-miterlimit:2;">
    <g transform="matrix(8.33333,0,0,8.33333,34.3833,139.85)">
        <path d="M0,4.033C0.281,-0.279 5.062,-2.436 5.062,-2.436L7.031,-1.029C2.568,1.329 2.005,2.101 0,4.033M15.938,-5.671L15.938,-13.782L16.031,-13.782C16.959,-13.782 17.719,-14.457 17.719,-15.282C17.719,-16.108 16.959,-16.782 16.031,-16.782L6.094,-16.782C5.165,-16.782 4.405,-16.108 4.405,-15.282C4.405,-14.457 5.165,-13.782 6.094,-13.782L6.187,-13.782L6.187,-5.786C0.199,-3.995 -4.126,1.128 -4.126,7.173C-4.126,14.707 2.59,20.815 10.875,20.815C19.159,20.815 25.875,14.707 25.875,7.173C25.875,1.255 21.73,-3.781 15.938,-5.671" style="fill:rgb(35,31,32);fill-rule:nonzero;"/>
    </g>
</svg>
