<svg viewBox="0 0 100 125" xmlns="http://www.w3.org/2000/svg" fill-rule="evenodd" clip-rule="evenodd" stroke-linejoin="round" stroke-miterlimit="2" fill="#F5F2ED"><path d="M32.71 45.65h6.66c2.919 0 5.32 2.402 5.32 5.32V74.1c0 2.913 2.397 5.31 5.31 5.31s5.31-2.397 5.31-5.31V51c0-2.918 2.402-5.32 5.32-5.32h6.682c2.913 0 5.31-2.397 5.31-5.31a5.31 5.31 0 0 0-.732-2.69L54.6 7.74A5.316 5.316 0 0 0 50 5.083a5.316 5.316 0 0 0-4.6 2.657L28.11 37.68a5.308 5.308 0 0 0-.714 2.66c0 2.913 2.397 5.31 5.31 5.31h.004zM73 88.54H27a3.203 3.203 0 0 0-3.011 3.185A3.203 3.203 0 0 0 27 94.91h46a3.203 3.203 0 0 0 3.011-3.185A3.203 3.203 0 0 0 73 88.54z" fill-rule="nonzero"/></svg>