<svg viewBox="0 0 100 125" xmlns="http://www.w3.org/2000/svg" fill-rule="evenodd" clip-rule="evenodd" stroke-linejoin="round" stroke-miterlimit="2"><path d="M33.11 13.79a3.014 3.014 0 0 0-3.32-2.64l-14.37 1.63a3.009 3.009 0 0 0-2.64 2.64l-1.64 14.37a3.014 3.014 0 0 0 2.64 3.32h.34a3.011 3.011 0 0 0 3-2.66l.88-8.17 16.67 16.63a3 3 0 0 0 2.195.955c1.646 0 3-1.354 3-3a3 3 0 0 0-.955-2.195L22.28 18l8.19-.93a3.014 3.014 0 0 0 2.64-3.28zM11.14 70.21l1.64 14.37a3.009 3.009 0 0 0 2.64 2.64l14.37 1.64h.34a3.02 3.02 0 0 0 3.175-3 3.018 3.018 0 0 0-2.835-3L22.28 82l16.63-16.67a3.001 3.001 0 0 0 .805-2.045c0-1.646-1.354-3-3-3-.759 0-1.49.288-2.045.805L18 77.72l-.93-8.19a3.03 3.03 0 0 0-3-2.679 3.034 3.034 0 0 0-3 3.359h.07zm55.75 16a3.011 3.011 0 0 0 3 2.66h.34l14.37-1.64a3.009 3.009 0 0 0 2.64-2.64l1.64-14.37a3.034 3.034 0 0 0-3-3.359 3.03 3.03 0 0 0-3 2.679L82 77.72 65.33 61.09a3 3 0 0 0-2.195-.955c-1.646 0-3 1.354-3 3a3 3 0 0 0 .955 2.195L77.72 82l-8.19.93a3.014 3.014 0 0 0-2.64 3.28zm-5.8-47.3a3.014 3.014 0 0 0 4.24 0L82 22.28l.93 8.19a3.011 3.011 0 0 0 3 2.66h.34a3.014 3.014 0 0 0 2.64-3.32l-1.69-14.39a3.009 3.009 0 0 0-2.64-2.64l-14.37-1.64a3.034 3.034 0 0 0-3.359 3 3.03 3.03 0 0 0 2.679 3l8.19.93-16.63 16.6a3.014 3.014 0 0 0 0 4.24z" fill-rule="nonzero" fill="#F5F2ED"/></svg>