<svg xmlns="http://www.w3.org/2000/svg" xmlns:xlink="http://www.w3.org/1999/xlink" xml:space="preserve" version="1.1" style="shape-rendering:geometricPrecision;text-rendering:geometricPrecision;image-rendering:optimizeQuality;" viewBox="0 0 3.452 5.23875" x="0px" y="0px" fill-rule="evenodd" clip-rule="evenodd"><defs><style type="text/css">

    .fil0 {fill:#F5F2ED;fill-rule:nonzero}

  </style></defs><g><path class="fil0" d="M2.954 0.869c-0.061,-0.061 -0.061,-0.16 0.001,-0.221 0.061,-0.061 0.16,-0.061 0.221,0 0.087,0.087 0.157,0.191 0.204,0.306 0.047,0.111 0.072,0.232 0.072,0.359l0 1.569c0,0.259 -0.106,0.494 -0.276,0.665 -0.171,0.17 -0.406,0.276 -0.665,0.276l-1.191 0 0.1 0.101c0.062,0.061 0.062,0.16 0,0.221 -0.061,0.062 -0.16,0.062 -0.221,0l-0.368 -0.368 -0.003 -0.002 0 -0.001 -0.003 -0.002 0 0 -0.002 -0.003 -0.001 0 -0.002 -0.003 -0.002 -0.002 0 -0.001 -0.001 -0.001 -0.001 -0.002 -0.001 -0.001 -0.001 -0.002 -0.001 0c-0.002,-0.004 -0.005,-0.008 -0.008,-0.012l-0.001 -0.002 0 -0.002 -0.001 -0.002 -0.001 -0.001 -0.001 -0.002 -0.001 -0.002 -0.001 -0.001 -0.001 -0.002 0 -0.002 -0.001 -0.001 -0.001 -0.002 -0.001 -0.002 0 -0.002 -0.001 -0.002 -0.001 -0.002c-0.005,-0.014 -0.007,-0.029 -0.008,-0.044l0 -0.003 0 -0.001 0 -0.004 0 -0.003 0 -0.001 0 -0.003c0.001,-0.016 0.003,-0.03 0.008,-0.044l0.001 -0.002 0.001 -0.002 0 -0.002 0.001 -0.002 0.001 -0.002 0.001 -0.001 0 -0.002 0.001 -0.002 0.001 -0.002 0.001 -0.001 0.001 -0.002 0.001 -0.002 0.001 -0.001 0 -0.002 0.001 -0.002c0.003,-0.004 0.006,-0.008 0.008,-0.012l0.001 0 0.001 -0.002 0.001 -0.001 0.001 -0.002 0.001 -0.001 0 -0.001 0.002 -0.002 0.002 -0.003 0.001 0 0.002 -0.003 0 0 0.003 -0.003 0 0 0.003 -0.002 0.002 -0.003 0 0 0.003 -0.003 0 0 0.002 -0.002 0.356 -0.363c0.061,-0.062 0.16,-0.062 0.222,-0.002 0.061,0.061 0.062,0.16 0.001,0.222l-0.103 0.105 1.197 0c0.172,0 0.329,-0.071 0.443,-0.185 0.114,-0.114 0.184,-0.271 0.184,-0.443l0 -1.569c0,-0.085 -0.017,-0.166 -0.047,-0.239 -0.032,-0.077 -0.079,-0.147 -0.137,-0.205zm-2.169 2.797l0 0 0 0zm1.25 -3.4c-0.061,-0.061 -0.06,-0.16 0.002,-0.221 0.061,-0.061 0.16,-0.06 0.221,0.002l0.356 0.363 0.002 0.002 0 0 0.003 0.002 0 0.001 0.003 0.002 0.002 0.003 0 0 0.003 0.003 0 0 0.002 0.002 0.001 0.001 0.002 0.002 0.002 0.003 0 0 0.001 0.001 0.001 0.002 0.001 0.001 0.002 0.002 0 0c0.003,0.004 0.005,0.009 0.008,0.013l0.001 0.002 0.001 0.001 0.001 0.002 0 0.002 0.001 0.002 0.001 0.001 0.001 0.002 0.001 0.002 0.001 0.002 0 0.001 0.001 0.002 0.001 0.002 0 0.002 0.001 0.001 0.001 0.002c0.005,0.014 0.008,0.029 0.008,0.045l0.001 0.003 0 0 0 0.004 0 0.004 0 0 -0.001 0.004c0,0.015 -0.003,0.03 -0.008,0.044l-0.001 0.002 -0.001 0.002 0 0.002 -0.001 0.001 -0.001 0.002 0 0.002 -0.001 0.002 -0.001 0.001 -0.001 0.002 -0.001 0.002 -0.001 0.002 0 0.001 -0.001 0.002 -0.001 0.001 -0.001 0.002c-0.003,0.005 -0.005,0.009 -0.008,0.013l0 0 -0.002 0.002 -0.001 0.001 -0.001 0.002 -0.001 0.001 0 0 -0.002 0.003 -0.002 0.002 -0.001 0.001 -0.002 0.002 0 0.001 -0.003 0.002 0 0 -0.002 0.003 -0.368 0.368c-0.062,0.061 -0.161,0.061 -0.222,0 -0.062,-0.061 -0.062,-0.161 0,-0.222l0.1 -0.1 -1.191 0c-0.172,0 -0.329,0.071 -0.443,0.185 -0.114,0.113 -0.184,0.27 -0.184,0.443l0 1.569c0,0.085 0.017,0.166 0.047,0.239 0.032,0.077 0.079,0.147 0.137,0.204 0.061,0.061 0.062,0.16 0.001,0.222 -0.061,0.061 -0.16,0.061 -0.222,0 -0.087,-0.087 -0.157,-0.191 -0.205,-0.306 -0.046,-0.111 -0.072,-0.233 -0.072,-0.359l0 -1.569c0,-0.259 0.106,-0.495 0.276,-0.665 0.171,-0.171 0.406,-0.277 0.665,-0.277l1.197 0 -0.103 -0.105zm0.633 0.262l0 0 0 0z"/></g><text x="0" y="19.191" fill="#F5F2ED" font-size="5px" font-weight="bold" font-family="'Helvetica Neue', Helvetica, Arial-Unicode, Arial, Sans-serif">Created by Deemak Daksina</text><text x="0" y="24.191" fill="#F5F2ED" font-size="5px" font-weight="bold" font-family="'Helvetica Neue', Helvetica, Arial-Unicode, Arial, Sans-serif">from the Noun Project</text></svg>