<?xml version="1.0" encoding="UTF-8" standalone="no"?>
<!DOCTYPE svg PUBLIC "-//W3C//DTD SVG 1.1//EN" "http://www.w3.org/Graphics/SVG/1.1/DTD/svg11.dtd">
<svg width="100%" height="100%" viewBox="0 0 100 125" version="1.1" xmlns="http://www.w3.org/2000/svg" xmlns:xlink="http://www.w3.org/1999/xlink" xml:space="preserve" xmlns:serif="http://www.serif.com/" style="fill-rule:evenodd;clip-rule:evenodd;stroke-linejoin:round;stroke-miterlimit:2;">
    <path d="M70.4,41.2L62.4,36.3C61.3,35.7 60,36.4 60,37.7L60,40.6L55.7,40.6C54.1,40.6 52.8,39.3 52.8,37.7L52.8,27.9C52.8,23.5 49.2,20 44.9,20C40.6,20 37,23.6 37,27.9L37,50.3C37,52.6 35.2,54.4 32.9,54.4C30.6,54.4 28.8,52.6 28.8,50.3L28.8,35.6C28.8,31.2 25.2,27.7 20.8,27.7C16.4,27.7 12.9,31.3 12.9,35.6L12.9,37.8C12.9,39.4 11.6,40.7 10,40.7L4.4,40.7C3.3,40.7 2.5,41.6 2.5,42.6C2.5,43.7 3.4,44.5 4.4,44.5L10.1,44.5C13.8,44.5 16.8,41.5 16.8,37.8L16.8,35.6C16.8,33.3 18.6,31.5 21,31.5C23.3,31.5 25.1,33.3 25.1,35.6L25.1,50.4C25.1,54.8 28.7,58.3 33,58.3C37.4,58.3 40.9,54.7 40.9,50.4L40.9,27.9C40.9,25.6 42.7,23.8 45,23.8C47.3,23.8 49.1,25.6 49.1,27.9L49.1,37.7C49.1,41.4 52.1,44.4 55.8,44.4L60.1,44.4L60.1,47.3C60.1,48.5 61.5,49.3 62.5,48.7L70.5,43.8C71.5,43.3 71.5,41.8 70.4,41.2ZM70.4,68.4L62.4,63.5C61.3,62.9 60,63.6 60,64.9L60,67.8L4.4,67.8C3.3,67.8 2.5,68.7 2.5,69.7C2.5,70.7 3.4,71.6 4.4,71.6L60.1,71.6L60.1,74.5C60.1,75.7 61.5,76.5 62.5,75.9L70.5,71C71.5,70.5 71.5,69 70.4,68.4ZM86.7,58.4C80.7,58.4 75.9,63.2 75.9,69.2C75.9,75.2 80.7,80 86.7,80C92.7,80 97.5,75.2 97.5,69.2C97.5,63.2 92.7,58.4 86.7,58.4ZM91.9,67.8L86.3,73.4C86,73.7 85.6,73.9 85.2,73.9C84.8,73.9 84.4,73.7 84.1,73.4L81.3,70.6C80.7,70 80.7,68.9 81.3,68.3C81.9,67.7 83,67.7 83.6,68.3L85.2,69.9L89.6,65.5C90.2,64.9 91.3,64.9 91.9,65.5C92.5,66.2 92.5,67.2 91.9,67.8ZM86.7,53.3C92.7,53.3 97.5,48.5 97.5,42.5C97.5,36.5 92.7,31.7 86.7,31.7C80.7,31.7 75.9,36.5 75.9,42.5C75.9,48.5 80.7,53.3 86.7,53.3ZM82.4,40.6C81.8,40 81.8,38.9 82.4,38.3C83,37.7 84.1,37.7 84.7,38.3L86.7,40.3L88.7,38.3C89.3,37.7 90.4,37.7 91,38.3C91.6,38.9 91.6,40 91,40.6L89,42.6L91,44.6C91.6,45.2 91.6,46.3 91,46.9C90.7,47.2 90.3,47.4 89.8,47.4C89.4,47.4 89,47.2 88.6,46.9L86.6,44.9L84.6,46.9C84.3,47.2 83.9,47.4 83.4,47.4C83,47.4 82.6,47.2 82.2,46.9C81.6,46.3 81.6,45.2 82.2,44.6L84.2,42.6L82.4,40.6Z" style="fill-rule:nonzero;fill:#F5F2ED;"/>
</svg>
