<svg height="256" viewBox="0 0 256 256" width="256" xmlns="http://www.w3.org/2000/svg"><g fill="#f5f2ed" fill-rule="evenodd" transform="translate(19.023341 -43.976659)"><path d="m149.976659 147.852144c0 1.039781-.039218 2.014912-.116275 2.929138l.116275-.002095v20.489301l-40.161325 11.708171-42.8386746-11.708171v-20.489301l.1162751.002095c-.0770564-.914226-.1162751-1.889357-.1162751-2.929138 0-2.44234.2163824-4.732513.6312501-6.874917l39.8541705 14.322491c.655854.235693 1.373305.235693 2.029159 0l39.854261-14.322024c.414808 2.14227.631159 4.432287.631159 6.87445z"/><path d="m67.3810149 178.976911 42.4343191 11.672203 39.757957-11.665204c.265891 1.886508.403368 3.813935.403368 5.773272 0 21.337252-16.303821 38.890076-37.206075 41.025426l-.000545-11.566494 11.448.000725v-23.567725h-5.724138l-.000552 5.891h-17.172l.000138-5.891h-5.7241379v23.567725l11.4479999-.000725-.000656 11.760495c-22.2567657-.75003-40.0680336-18.917561-40.0680336-41.219427 0-1.961761.1378176-3.891531.4043555-5.780271zm74.0802391 21.442352-.533166 1.042423c-2.659605 4.987021-6.512023 9.221151-11.322142 12.344943l-.501005.319176 1.561124 2.49832 1.015115-.657763c5.171746-3.473395 9.291774-8.153531 12.095747-13.642213l.276-.551548zm-34.415905 2.012851v5.892h-5.724v-5.892zm11.448 0 .00069 5.892h-5.724l-.00069-5.892zm26.025698-13.321172-.12622 1.212898c-.291742 2.416303-.818706 4.774272-1.5703 7.049097l2.709921.935381.38685-1.239773c.732897-2.493929 1.220345-5.072593 1.450927-7.708157z"/><path d="m40.3500713 36.9580808 86.0648447 52.2299158c.412234.2501709.758088.5960256 1.008259 1.0082589l52.229916 86.0648445c.859586 1.416432.408173 3.261509-1.008259 4.121094-.866731.525991-1.940491.57863-2.854515.139939l-93.4451589-44.849602c-.6151488-.295244-1.1112732-.791369-1.4065178-1.406517l-44.8496017-93.4451596c-.7169193-1.4937177-.0871999-3.2857931 1.4065179-4.0027125.9140234-.4386914 1.9877836-.3860517 2.8545148.1399389z" transform="matrix(.70710678 -.70710678 .70710678 .70710678 -44.861643 108.305586)"/><path d="m87.0554767 218.977274c6.2558164 3.80854 13.5852893 5.999385 21.4211823 5.999385 7.835838 0 15.165262-2.190813 21.421049-5.999303l.078951-.000697v12h-42.9999996v-12z"/><path d="m131.976659 233.976659v12h-48.9999996v-12z"/><path d="m131.976659 247.976659v12h-48.9999996v-12z"/><path d="m176.976659 117.976659h2v14h-2z"/><path d="m174.976659 131.976659h6c.552285 0 1 .447716 1 1v34h-8v-34c0-.552284.447716-1 1-1z"/></g></svg>