<svg height="256" viewBox="0 0 256 256" width="256" xmlns="http://www.w3.org/2000/svg"><g fill="none" fill-rule="evenodd" transform="matrix(.99756405 .06975647 -.06975647 .99756405 48.936261 25.109638)"><g stroke="#f5f2ed" stroke-width="4.063216" transform="matrix(.99939083 .0348995 -.0348995 .99939083 6.60315 0)"><rect height="173.349978" rx="9.674324" width="114.760551" x="25.732807"/><path d="m105.086227 0c5.342982 0 9.674324 4.3313423 9.674324 9.67432379v154.00133021c0 5.342982-4.331342 9.674324-9.674324 9.674324h-95.41190321c-5.34298149 0-9.67432379-4.331342-9.67432379-9.674324v-154.00133021c0-5.34298149 4.3313423-9.67432379 9.67432379-9.67432379zm-47.6575292 57.4603337c-16.0991824 0-29.1501485 13.0581554-29.1501485 29.1662064 0 16.1080509 13.0509661 29.1662069 29.1501485 29.1662069 16.0991825 0 29.1501485-13.058156 29.1501485-29.1662069 0-16.108051-13.050966-29.1662064-29.1501485-29.1662064z" fill="#f5f2ed" transform="matrix(.98768834 -.15643447 .15643447 .98768834 0 17.988977)"/></g><g fill="#f5f2ed" transform="matrix(.87461971 .48480962 -.48480962 .87461971 78.169173 78.477058)"><path d="m3.8906217.9805124.96372057-.9805124.8954181.9805124.4746737 27.3136148h-2.80848607z"/><path d="m0 28.1923432h9.78127905l-.58106608 1.7441585h-8.61914689z"/><path d="m4.24766591 29.0821065h1.27834538v6.307429l.35240516.688318.60635387.949864h-3.19586345l.44497348-.8069614.51378556-.9559169z"/></g></g></svg>