<svg height="256" viewBox="0 0 256 256" width="256" xmlns="http://www.w3.org/2000/svg"><g fill="#f5f2ed" fill-rule="evenodd" transform="translate(27 39)"><path d="m201 84v94h-96v-15.469l80.4.000646v-78.531646z"/><path d="m179 54v101h-96v-18.036l76.8.000286v-82.964286z"/><path d="m153 27v101h-153v-101zm-63.3515625 19.2380952h-81.28125v66.1309528h81.28125zm54.9843745 37.2738096h-51.398437v28.8571432h51.398437zm0-12.0238096h-51.398437v6.0119048h51.398437zm0-13.2261904h-51.398437v6.0119047h51.398437zm0-12.0238096h-51.398437v6.0119048h51.398437z"/><path d="m179 25v21h-19v-21z"/><path d="m153 0v21h-153v-21zm-111 4h-37v13h37z"/></g></svg>