<svg height="256" viewBox="0 0 256 256" width="256" xmlns="http://www.w3.org/2000/svg"><g fill="none" fill-rule="evenodd" transform="translate(56 30)"><path d="m80.2884615 0 1.8463926 9.23047086c1.9732701.60729554 3.8669472 1.39624284 5.6615123 2.34732304l7.8341843-5.22289251 11.0145483 11.01454791-5.222893 7.8341843c.95108 1.7945651 1.740028 3.6882422 2.347323 5.6615123l9.230471 1.8463926v15.576923l-9.230471 1.8463926c-.607295 1.9732701-1.396243 3.8669472-2.347323 5.6615123l5.222893 7.8341843-11.0145483 11.0145479-7.8341843-5.2228925c-1.7945651.9510802-3.6882422 1.7400275-5.6615123 2.347323l-1.8463926 9.2304709h-15.576923l-1.8463926-9.2304709c-1.9732701-.6072955-3.8669472-1.3962428-5.6615123-2.347323l-7.8341843 5.2228925-11.0145479-11.0145479 5.2228925-7.8341843c-.9510802-1.7945651-1.7400275-3.6882422-2.347323-5.6615123l-9.2304709-1.8463926v-15.576923l9.2304709-1.8463926c.6072955-1.9732701 1.3962428-3.8669472 2.347323-5.6615123l-5.2228925-7.8341843 11.0145479-11.01454791 7.8341843 5.22289251c1.7945651-.9510802 3.6882422-1.7400275 5.6615123-2.34732304l1.8463926-9.23047086zm-7.7884615 21.8076923c-10.3234765 0-18.6923077 8.3688312-18.6923077 18.6923077s8.3688312 18.6923077 18.6923077 18.6923077 18.6923077-8.3688312 18.6923077-18.6923077-8.3688312-18.6923077-18.6923077-18.6923077z" fill="#f5f2ed"/><g stroke="#f5f2ed" stroke-linecap="square" stroke-width="6"><path d="m71.5 92.404762v16.190476"/><path d="m40.5 111.404762v16.190476"/><path d="m102.5 111.404762v16.190476"/><path d="m102 110.5h-61"/></g><path d="m55 135c3.3137085 0 6 2.686292 6 6v49c0 3.313708-2.6862915 6-6 6h-49c-3.3137085 0-6-2.686292-6-6v-49c0-3.313708 2.6862915-6 6-6zm-14.3677008 15.032721c-.6580738 0-1.2006346.210024-1.6276824.630071-.4270479.420047-.6405718.938105-.6405718 1.554174 0 .574064.1890212 1.064119.5670635 1.470165.3780424.406045.8610965.637071 1.4491624.693077.5880659.056007.9906111.206523 1.2076354.451551.1929105.217802.300083.565594.3215175 1.043376l.004019.185262v6.846767c0 .938105.0945106 1.676688.2835317 2.215748.1890212.539061.5285593 1.095623 1.0186142 1.669687-.5180581.588066-.8645969 1.148129-1.0396165 1.680189-.1604347.487721-.2473368 1.257807-.2607063 2.310259l-.0018231.294033v6.846767c0 .574064-.1260142 1.008113-.3780424 1.302146-.1540173.196022-.5320596.322036-1.1341271.378042s-1.0921224.287032-1.4701648.693078c-.3780423.406045-.5670635.8961-.5670635 1.470165 0 .616069.2135239 1.134127.6405718 1.554174.4270478.420047.9766094.63007 1.6486847.63007 1.4701648 0 2.7653099-.563563 3.8854355-1.690689 1.0501177-1.056681 1.6079927-2.301029 1.673625-3.733045l.0065633-.288906v-7.581849c0-.588066.1190133-1.022115.35704-1.302146.1400157-.182021.53556-.311535 1.186633-.388544.6510729-.077009 1.1481287-.304534 1.4911671-.682576.3430384-.378043.5145577-.875099.5145577-1.491168 0-.63007-.1715193-1.134127-.5145577-1.512169s-.8365938-.602068-1.4806659-.672075c-.6440722-.070008-1.0641193-.220525-1.2601413-.451551-.1742417-.205356-.2710427-.557297-.2904029-1.055822l-.00363-.193818v-7.182805c0-.952107-.2030228-1.792201-.6090683-2.520282-.6440722-1.120126-1.4001569-1.928717-2.2682542-2.425772-.8680973-.497056-1.7711985-.745584-2.7093036-.745584zm-18.818109 0c-1.4701648 0-2.7653099.563563-3.8854354 1.69069-1.0501177 1.056681-1.6079928 2.294876-1.6736251 3.714586l-.0065632.286362v7.182805c0 .588066-.1190134 1.022115-.3570401 1.302146-.1400156.18202-.53556.311535-1.1866329.388543-.651073.077009-1.1481287.304535-1.4911672.682577-.3430384.378042-.5145576.882099-.5145576 1.512169 0 .616069.1715192 1.113125.5145576 1.491168.3430385.378042.8365938.605567 1.480666.682576s1.0641192.227526 1.2601412.451551c.1742418.199133.2710427.547617.2904029 1.04545l.0036301.193689v7.581849c0 .966108.2030227 1.813203.6090682 2.541285.6440722 1.120126 1.4001569 1.928716 2.2682542 2.425772s1.7711985.745583 2.7093037.745583c.6580737 0 1.2006345-.210023 1.6276824-.63007.4270478-.420047.6405718-.938105.6405718-1.554174 0-.588066-.1890212-1.085122-.5670636-1.491167-.3780424-.406046-.8610965-.633571-1.4491624-.682577-.5880659-.049005-.990611-.196022-1.2076353-.441049-.1929105-.217803-.3000831-.565595-.3215176-1.043377l-.0040189-.185261v-6.846767c0-1.204135-.0910102-2.075733-.2730306-2.614793-.1820204-.539061-.5250589-1.095623-1.0291154-1.669688.490055-.574064.829593-1.123626 1.0186142-1.648684.1680188-.466719.2613626-1.10768.2800314-1.922883l.0035004-.313868v-6.846767c0-.574065.1260141-1.008113.3780423-1.302146.1540173-.196022.5320597-.322036 1.1341271-.378043.6020675-.056006 1.0921224-.287032 1.4701648-.693077.3780424-.406046.5670636-.896101.5670636-1.470165 0-.616069-.213524-1.134127-.6405718-1.554174-.4270479-.420047-.9766095-.630071-1.6486848-.630071z" fill="#f5f2ed"/><path d="m137 135c3.313708 0 6 2.686292 6 6v49c0 3.313708-2.686292 6-6 6h-49c-3.3137085 0-6-2.686292-6-6v-49c0-3.313708 2.6862915-6 6-6zm-18.926268 13.410958c-.420835 0-.789065.143748-1.104691.431244-.199897.19714-.4282.599429-.684909 1.206867l-.086622.210078-11.555421 29.057637c-.280557.711895-.420835 1.252662-.420835 1.622299 0 .520231.17827.985701.534811 1.39641.35654.410708.780298.616063 1.271272.616063.432524 0 .800755-.143748 1.104691-.431244.210417-.19714.444507-.59943.702268-1.206868l.086797-.210077 11.520352-29.078173c.280556-.711895.420835-1.252662.420835-1.622299 0-.520231-.175348-.982279-.526044-1.386142-.350695-.403864-.77153-.605795-1.262504-.605795zm-16.261257 3.063576c-.214453 0-.532834.192951-.955141.578853l-.144619.13578-13.5957779 13.553386 13.5957779 13.553386c.494892.49285.866061.739275 1.113507.739275.375751 0 .705679-.258746.989784-.776239.284104-.517493.426156-1.129449.426156-1.835868 0-.558563-.075608-1.018557-.226825-1.379981-.132315-.316245-.382159-.670225-.749533-1.061938l-.164642-.170188-9.1280049-9.068447 9.1280049-9.068447c.458233-.459994.762958-.870703.914175-1.232126.151217-.361424.226825-.821418.226825-1.379981 0-.706419-.142052-1.314268-.426156-1.823547-.284105-.509278-.618615-.763918-1.003531-.763918zm22.036433 0c-.384916 0-.719426.25464-1.00353.763918-.284105.509279-.426157 1.117128-.426157 1.823547 0 .558563.075608 1.018557.226825 1.379981.132315.316245.382159.670225.749534 1.061938l.164641.170188 9.128005 9.068447-9.128005 9.068447c-.458233.459994-.762958.870703-.914175 1.232126-.151217.361424-.226825.821418-.226825 1.379981 0 .722848.142052 1.338911.426157 1.848189.284104.509279.618614.763918 1.00353.763918.214453 0 .532834-.199604.955141-.598813l.144619-.140462 13.595778-13.553386-13.595778-13.553386c-.494892-.476422-.861478-.714633-1.09976-.714633z" fill="#f5f2ed"/></g></svg>