<svg xmlns="http://www.w3.org/2000/svg" viewBox="0 0 24 30"><g fill="#F5F2ED"><path d="M6.5 16h-4a.5.5 0 0 0-.5.5v4a.5.5 0 0 0 .5.5h4a.5.5 0 0 0 .5-.5v-4a.5.5 0 0 0-.5-.5zM6 20H3v-3h3v3zm8.5-8h-5a.5.5 0 0 0-.5.5v8a.5.5 0 0 0 .5.5h5a.5.5 0 0 0 .5-.5v-8a.5.5 0 0 0-.5-.5zm-.5 8h-4v-7h4v7zm7.5-2h-4a.5.5 0 0 0-.5.5v2a.5.5 0 0 0 .5.5h4a.5.5 0 0 0 .5-.5v-2a.5.5 0 0 0-.5-.5zm-.5 2h-3v-1h3v1zM10.5 9a.5.5 0 0 0 0 1h3a.5.5 0 0 0 0-1h-1V7.911C13.36 7.632 14 6.662 14 5.5v-2a.5.5 0 0 0-.5-.5h-3a.5.5 0 0 0-.5.5v2c0 1.162.64 2.132 1.5 2.411V9h-1zm.5-3.5V4h2v1.5c0 .813-.458 1.5-1 1.5s-1-.687-1-1.5z"/></g><text y="39" font-size="5" font-weight="bold" font-family="'Helvetica Neue', Helvetica, Arial-Unicode, Arial, Sans-serif">Created by Ralf Schmitzer</text><text y="44" font-size="5" font-weight="bold" font-family="'Helvetica Neue', Helvetica, Arial-Unicode, Arial, Sans-serif">from the Noun Project</text></svg>