<svg height="256" width="256" xmlns="http://www.w3.org/2000/svg"><g fill="none" fill-rule="evenodd"><path d="M136.288 30l1.847 9.23a32.508 32.508 0 0 1 5.661 2.348l7.835-5.223 11.014 11.014-5.223 7.835a32.508 32.508 0 0 1 2.348 5.661l9.23 1.847v15.576l-9.23 1.847a32.508 32.508 0 0 1-2.348 5.661l5.223 7.835-11.014 11.014-7.835-5.223a32.508 32.508 0 0 1-5.661 2.348l-1.847 9.23h-15.576l-1.847-9.23a32.508 32.508 0 0 1-5.661-2.348l-7.835 5.223-11.014-11.014 5.223-7.835a32.508 32.508 0 0 1-2.348-5.661L88 78.288V62.712l9.23-1.847a32.508 32.508 0 0 1 2.348-5.661l-5.223-7.835 11.014-11.014 7.835 5.223a32.508 32.508 0 0 1 5.661-2.348l1.847-9.23zM128.5 51.808c-10.323 0-18.692 8.369-18.692 18.692s8.369 18.692 18.692 18.692 18.692-8.369 18.692-18.692-8.369-18.692-18.692-18.692z" fill="#f5f2ed"/><g stroke="#f5f2ed" stroke-linecap="square" stroke-width="6"><path d="M127.5 122.405v16.19m-31 2.81v16.19m62-16.19v16.19M158 140.5H97"/></g><path d="M111 165a6 6 0 0 1 6 6v49a6 6 0 0 1-6 6H62a6 6 0 0 1-6-6v-49a6 6 0 0 1 6-6zm-14.368 15.033c-.658 0-1.2.21-1.627.63-.427.42-.641.938-.641 1.554 0 .574.19 1.064.567 1.47.378.406.861.637 1.45.693.587.056.99.207 1.207.452.193.218.3.565.321 1.043l.004.185v6.847c0 .938.095 1.677.284 2.216.189.539.529 1.096 1.019 1.67-.518.588-.865 1.148-1.04 1.68-.16.488-.247 1.258-.26 2.31l-.003.294v6.847c0 .574-.126 1.008-.378 1.302-.154.196-.532.322-1.134.378s-1.092.287-1.47.693a2.08 2.08 0 0 0-.567 1.47c0 .616.214 1.134.64 1.554.428.42.977.63 1.65.63 1.47 0 2.765-.563 3.885-1.69 1.05-1.057 1.608-2.301 1.673-3.733l.007-.29v-7.581c0-.588.119-1.022.357-1.302.14-.182.536-.312 1.187-.389.65-.077 1.148-.304 1.49-.682.344-.378.515-.875.515-1.491 0-.63-.171-1.135-.514-1.513s-.837-.602-1.48-.672c-.645-.07-1.065-.22-1.261-.451-.174-.206-.271-.557-.29-1.056l-.004-.194v-7.183c0-.952-.203-1.792-.61-2.52-.643-1.12-1.4-1.929-2.267-2.426-.868-.497-1.772-.745-2.71-.745zm-18.818 0c-1.47 0-2.765.563-3.885 1.69-1.05 1.057-1.608 2.295-1.674 3.715l-.006.286v7.183c0 .588-.12 1.022-.357 1.302-.14.182-.536.312-1.187.389-.651.077-1.148.304-1.491.682-.343.378-.515.883-.515 1.513 0 .616.172 1.113.515 1.49.343.379.836.606 1.48.683s1.065.228 1.26.452c.175.199.272.548.29 1.045l.005.194v7.582c0 .966.203 1.813.609 2.541.644 1.12 1.4 1.929 2.268 2.426s1.771.746 2.71.746c.657 0 1.2-.21 1.627-.63.427-.42.64-.939.64-1.555 0-.588-.189-1.085-.567-1.49-.378-.407-.86-.634-1.449-.683-.588-.05-.99-.196-1.207-.442-.193-.217-.3-.565-.322-1.043l-.004-.185v-6.847c0-1.204-.091-2.076-.273-2.615-.182-.539-.525-1.095-1.03-1.67.491-.573.83-1.123 1.02-1.648.168-.467.26-1.108.28-1.923l.003-.314v-6.847c0-.574.126-1.008.378-1.302.154-.196.532-.322 1.134-.378.602-.056 1.092-.287 1.47-.693a2.08 2.08 0 0 0 .567-1.47c0-.616-.213-1.134-.64-1.554-.427-.42-.977-.63-1.649-.63zM193 165a6 6 0 0 1 6 6v49a6 6 0 0 1-6 6h-49a6 6 0 0 1-6-6v-49a6 6 0 0 1 6-6zm-18.926 13.411c-.421 0-.79.144-1.105.431-.2.197-.428.6-.685 1.207l-.086.21-11.556 29.058c-.28.712-.42 1.252-.42 1.622 0 .52.178.986.534 1.396.357.411.78.617 1.271.617.433 0 .801-.144 1.105-.432.21-.197.445-.6.702-1.207l.087-.21 11.52-29.078c.281-.712.421-1.252.421-1.622 0-.52-.175-.982-.526-1.386-.35-.404-.771-.606-1.262-.606zm-16.262 3.064c-.214 0-.532.192-.955.578l-.144.136-13.596 13.554 13.596 13.553c.495.493.866.74 1.113.74.376 0 .706-.26.99-.777.284-.518.426-1.13.426-1.836 0-.558-.075-1.018-.227-1.38-.132-.316-.382-.67-.75-1.062l-.164-.17-9.128-9.068 9.128-9.069c.458-.46.763-.87.914-1.232.152-.361.227-.821.227-1.38 0-.706-.142-1.314-.426-1.824-.284-.509-.619-.763-1.004-.763zm22.037 0c-.385 0-.72.254-1.004.763-.284.51-.426 1.118-.426 1.824 0 .559.076 1.019.227 1.38.132.316.382.67.75 1.062l.164.17 9.128 9.069-9.128 9.068c-.458.46-.763.87-.914 1.232-.151.362-.227.822-.227 1.38 0 .723.142 1.339.426 1.848.284.51.619.764 1.004.764.214 0 .533-.2.955-.599l.145-.14 13.595-13.553-13.595-13.554c-.495-.476-.862-.714-1.1-.714z" fill="#f5f2ed"/></g></svg>