<svg clip-rule="evenodd" fill-rule="evenodd" stroke-linejoin="round" stroke-miterlimit="2" viewBox="0 0 100 125" xmlns="http://www.w3.org/2000/svg"><path d="m70.4 41.2-8-4.9c-1.1-.6-2.4.1-2.4 1.4v2.9h-4.3c-1.6 0-2.9-1.3-2.9-2.9v-9.8c0-4.4-3.6-7.9-7.9-7.9s-7.9 3.6-7.9 7.9v22.4c0 2.3-1.8 4.1-4.1 4.1s-4.1-1.8-4.1-4.1v-14.7c0-4.4-3.6-7.9-8-7.9s-7.9 3.6-7.9 7.9v2.2c0 1.6-1.3 2.9-2.9 2.9h-5.6c-1.1 0-1.9.9-1.9 1.9 0 1.1.9 1.9 1.9 1.9h5.7c3.7 0 6.7-3 6.7-6.7v-2.2c0-2.3 1.8-4.1 4.2-4.1 2.3 0 4.1 1.8 4.1 4.1v14.8c0 4.4 3.6 7.9 7.9 7.9 4.4 0 7.9-3.6 7.9-7.9v-22.5c0-2.3 1.8-4.1 4.1-4.1s4.1 1.8 4.1 4.1v9.8c0 3.7 3 6.7 6.7 6.7h4.3v2.9c0 1.2 1.4 2 2.4 1.4l8-4.9c1-.5 1-2-.1-2.6zm0 27.2-8-4.9c-1.1-.6-2.4.1-2.4 1.4v2.9h-55.6c-1.1 0-1.9.9-1.9 1.9s.9 1.9 1.9 1.9h55.7v2.9c0 1.2 1.4 2 2.4 1.4l8-4.9c1-.5 1-2-.1-2.6zm16.3-10c-6 0-10.8 4.8-10.8 10.8s4.8 10.8 10.8 10.8 10.8-4.8 10.8-10.8-4.8-10.8-10.8-10.8zm5.2 9.4-5.6 5.6c-.3.3-.7.5-1.1.5s-.8-.2-1.1-.5l-2.8-2.8c-.6-.6-.6-1.7 0-2.3s1.7-.6 2.3 0l1.6 1.6 4.4-4.4c.6-.6 1.7-.6 2.3 0 .6.7.6 1.7 0 2.3zm-5.2-14.5c6 0 10.8-4.8 10.8-10.8s-4.8-10.8-10.8-10.8-10.8 4.8-10.8 10.8 4.8 10.8 10.8 10.8zm-4.3-12.7c-.6-.6-.6-1.7 0-2.3s1.7-.6 2.3 0l2 2 2-2c.6-.6 1.7-.6 2.3 0s.6 1.7 0 2.3l-2 2 2 2c.6.6.6 1.7 0 2.3-.3.3-.7.5-1.2.5-.4 0-.8-.2-1.2-.5l-2-2-2 2c-.3.3-.7.5-1.2.5-.4 0-.8-.2-1.2-.5-.6-.6-.6-1.7 0-2.3l2-2z" fill="#f5f2ed" fill-rule="nonzero"/></svg>