<svg xmlns="http://www.w3.org/2000/svg" xmlns:xlink="http://www.w3.org/1999/xlink" xml:space="preserve" version="1.1" style="shape-rendering:geometricPrecision;text-rendering:geometricPrecision;image-rendering:optimizeQuality;" viewBox="0 0 9641.58 10780.5125" x="0px" y="0px" fill-rule="evenodd" clip-rule="evenodd"><defs><style type="text/css">

    .fil0 {fill:#F5F2ED}

  </style></defs><g><circle class="fil0" cx="1396.86" cy="1649.75" r="1396.87"/><path class="fil0" d="M3256.74 334.81l2629.86 0 0 2629.86 -421.93 0 -47.48 -221.77c-41.7,-194.83 -159.2,-354.8 -314.78,-455.5 -153.15,-99.14 -343,-141.29 -533.79,-103.34 -9.54,1.49 -21.07,3.69 -34.38,6.52 -174.47,37.33 -324.97,150.36 -423.44,300.04 -89.61,136.24 -137.44,304.45 -121.73,474.04l-732.33 0 0 -2629.86z"/><polygon class="fil0" points="7906.94,0 8465.19,1055.56 9641.58,1260.29 8810.23,2117.4 8979.03,3299.5 7906.94,2773.67 6834.87,3299.5 7003.69,2117.42 6172.3,1260.29 7348.69,1055.56 "/><path class="fil0" d="M5684.44 4962.85l93.74 -8.44 -55.76 -619.83c-25.64,-285.02 186.57,-539.19 471.62,-564.83 285.02,-25.64 539.19,186.59 564.83,471.6l55.76 619.83 142.27 -12.8 -39.66 -440.84c-25.64,-285 186.59,-539.17 471.64,-564.81 285,-25.64 539.17,186.57 564.81,471.58l39.66 440.86 67.39 -6.07 -16.41 -182.52c-25.64,-285.02 186.57,-539.19 471.62,-564.83 285.02,-25.64 539.19,186.59 564.83,471.6l176.48 1961.93 1.71 90.83c92.48,1028.34 -673.15,1945.32 -1701.48,2037.82l-589.49 53.03c-1514.12,136.19 -2535.34,-1625.75 -3350.55,-2624.7 -251.68,-308.42 -30.06,-689.57 74.18,-732.06 221.71,-180.95 551.14,-147.59 732.08,74.12l374.24 458.59 -597.38 -2789.94c-60.32,-281.76 137.58,-578 399.84,-617.74 279.83,-59.91 557.8,120.01 617.74,399.86l466.28 2177.77z"/></g><text x="0" y="8639.41" fill="#F5F2ED" font-size="5px" font-weight="bold" font-family="'Helvetica Neue', Helvetica, Arial-Unicode, Arial, Sans-serif">Created by Dong Ik Seo</text><text x="0" y="8644.41" fill="#F5F2ED" font-size="5px" font-weight="bold" font-family="'Helvetica Neue', Helvetica, Arial-Unicode, Arial, Sans-serif">from the Noun Project</text></svg>