<svg xmlns="http://www.w3.org/2000/svg" viewBox="0 0 3.452 5.239" fill-rule="evenodd" clip-rule="evenodd" shape-rendering="geometricPrecision" text-rendering="geometricPrecision" image-rendering="optimizeQuality"><defs><style>.fil0{fill:#f5f2ed;fill-rule:nonzero}</style></defs><path class="fil0" d="M2.954.869a.155.155 0 0 1 .001-.221.156.156 0 0 1 .221 0 .933.933 0 0 1 .276.665v1.569a.941.941 0 0 1-.941.941H1.32l.1.101a.155.155 0 0 1 0 .221.155.155 0 0 1-.221 0l-.368-.368-.003-.002v-.001l-.003-.002-.002-.003H.822L.82 3.766l-.002-.002v-.001l-.001-.001-.001-.002-.001-.001-.001-.002H.813l-.008-.012-.001-.002v-.002l-.001-.002-.001-.001-.001-.002L.8 3.734l-.001-.001-.001-.002v-.002l-.001-.001-.001-.002-.001-.002v-.002L.794 3.72l-.001-.002a.163.163 0 0 1-.008-.044v-.015a.156.156 0 0 1 .008-.044l.001-.002.001-.002v-.002l.001-.002.001-.002.001-.001v-.002L.799 3.6.8 3.598l.001-.001.001-.002.001-.002.001-.001V3.59l.001-.002a.083.083 0 0 0 .008-.012h.001l.001-.002.001-.001.001-.002.001-.001v-.001l.002-.002.002-.003h.001l.002-.003.003-.003.003-.002.002-.003.003-.003.002-.002.356-.363a.158.158 0 0 1 .222-.002c.061.061.062.16.001.222l-.103.105h1.197a.626.626 0 0 0 .627-.628V1.313a.629.629 0 0 0-.184-.444zM.785 3.666zm1.25-3.4a.155.155 0 0 1 .002-.221.155.155 0 0 1 .221.002l.356.363.002.002.003.002v.001l.003.002.002.003.003.003.002.002.001.001.002.002.002.003.001.001.001.002.001.001.002.002.008.013.001.002.001.001.001.002v.002l.001.002.001.001.001.002.001.002.001.002v.001l.001.002.001.002v.002l.001.001.001.002a.133.133 0 0 1 .008.045l.001.003v.008l-.001.004c0 .015-.003.03-.008.044l-.001.002-.001.002v.002l-.001.001-.001.002v.002l-.001.002-.001.001-.001.002-.001.002L2.65.6v.001l-.001.002-.001.001-.001.002-.008.013-.002.002-.001.001-.001.002-.001.001-.002.003L2.63.63l-.001.001-.002.002v.001l-.003.002-.002.003-.368.368a.158.158 0 0 1-.222 0 .156.156 0 0 1 0-.222l.1-.1H.941a.626.626 0 0 0-.627.628v1.569a.629.629 0 0 0 .184.443c.061.061.062.16.001.222a.158.158 0 0 1-.222 0A.951.951 0 0 1 0 2.882V1.313A.94.94 0 0 1 .276.648.938.938 0 0 1 .941.371h1.197L2.035.266zm.633.262z"/><text y="19.191" fill="#F5F2ED" font-size="5" font-weight="bold" font-family="'Helvetica Neue', Helvetica, Arial-Unicode, Arial, Sans-serif">Created by Deemak Daksina</text><text y="24.191" fill="#F5F2ED" font-size="5" font-weight="bold" font-family="'Helvetica Neue', Helvetica, Arial-Unicode, Arial, Sans-serif">from the Noun Project</text></svg>