<svg height="256" width="256" xmlns="http://www.w3.org/2000/svg"><g fill="#f5f2ed" fill-rule="evenodd"><path d="M169 103.875c0 1.04-.04 2.015-.116 2.93l.116-.002v20.489L128.839 139 86 127.292v-20.49l.116.003a34.924 34.924 0 0 1-.116-2.93c0-2.442.216-4.732.631-6.874l39.854 14.322a3 3 0 0 0 2.03 0l39.854-14.322c.415 2.142.631 4.432.631 6.874z"/><path d="M86.404 135l42.435 11.672 39.758-11.665a41.35 41.35 0 0 1 .403 5.774c0 21.337-16.304 38.89-37.206 41.025v-11.567l11.447.001v-23.568h-5.724v5.891h-17.172v-5.89h-5.724v23.567h11.448l-.001 11.76C103.811 181.25 86 163.082 86 140.78c0-1.961.138-3.891.404-5.78zm74.08 21.443l-.533 1.042a33.416 33.416 0 0 1-11.322 12.345l-.5.32 1.56 2.497 1.016-.657a36.227 36.227 0 0 0 12.095-13.643l.276-.551zm-34.415 2.012v5.892h-5.724v-5.892zm11.448 0v5.892h-5.724v-5.892zm26.025-13.32l-.126 1.212a36.338 36.338 0 0 1-1.57 7.05l2.71.935.387-1.24a39.545 39.545 0 0 0 1.45-7.708z"/><path d="M28.827 61.93l97.789-23.924a3 3 0 0 1 1.426 0L225.83 61.93a3 3 0 0 1 .282 5.745l-97.79 34.362a3 3 0 0 1-1.989 0L28.545 67.675a3 3 0 0 1 .282-5.745z"/><path d="M106.079 175a41.053 41.053 0 0 0 21.421 6c7.836 0 15.165-2.19 21.421-6H149v12h-43v-12zM151 190v12h-49v-12zm0 14v12h-49v-12zm45-130h2v14h-2zm-2 14h6a1 1 0 0 1 1 1v34h-8V89a1 1 0 0 1 1-1z"/></g></svg>