<svg height="256" width="256" xmlns="http://www.w3.org/2000/svg"><g fill="none" fill-rule="evenodd"><g stroke="#f5f2ed" stroke-width="4.063" transform="rotate(6 -216.193 542.51)"><rect height="173.35" rx="9.674" width="114.761" x="25.733"/><path d="M103.792 1.55c5.278-.836 10.233 2.764 11.07 8.042l24.09 152.105c.836 5.277-2.764 10.233-8.042 11.069L36.673 187.69c-5.277.836-10.233-2.764-11.068-8.041L1.513 27.544c-.835-5.277 2.765-10.233 8.042-11.068zM65.71 65.758c-15.9 2.519-26.748 17.458-24.228 33.367 2.52 15.91 17.453 26.766 33.354 24.247 15.9-2.518 26.748-17.457 24.228-33.367-2.52-15.91-17.453-26.765-33.354-24.247z" fill="#f5f2ed"/></g><g fill="#f5f2ed"><path d="M124.17 111.79l1.342-.298.217 1.31-14.478 23.166-2.355-1.53z"/><path d="M106.086 132.492l8.203 5.328-1.437 1.146-7.229-4.694z"/><path d="M109.164 135.552l1.072.696-3.435 5.29-.08.77-.008 1.126-2.68-1.74.812-.435.952-.522z"/></g></g></svg>